<svg width="56" height="57" viewBox="0 0 56 57" fill="none" xmlns="http://www.w3.org/2000/svg">
<rect y="0.12207" width="56" height="56" rx="28" fill="black"/>
<path fill-rule="evenodd" clip-rule="evenodd" d="M28.6098 38.7409C36.123 34.3008 39.9808 29.5875 39.9808 24.5316C39.9808 17.3407 31.895 15.0787 28 19.8615C24.105 15.0787 16.0192 17.3407 16.0192 24.5316C16.0192 29.5875 19.8758 34.2996 27.3902 38.7409C27.5748 38.8501 27.7855 38.9077 28 38.9077C28.2145 38.9077 28.4252 38.8501 28.6098 38.7409ZM29.0915 22.629C31.2073 17.9541 37.5847 19.1905 37.5847 24.5316C37.5847 28.429 34.4505 32.379 28 36.3136C21.5507 32.3778 18.4153 28.4302 18.4153 24.5316C18.4153 19.1893 24.7927 17.9541 26.9085 22.629C27.3339 23.5683 28.6661 23.5683 29.0915 22.629Z" fill="white" fill-opacity="0.85"/>
</svg>
