<svg width="45" height="45" viewBox="0 0 45 45" fill="none" xmlns="http://www.w3.org/2000/svg">
<path fill-rule="evenodd" clip-rule="evenodd" d="M22.1221 44.1221C34.306 44.1221 44.1831 34.245 44.1831 22.061C44.1831 9.87706 34.306 0 22.1221 0C9.9381 0 0.0610352 9.87706 0.0610352 22.061C0.0610352 34.245 9.9381 44.1221 22.1221 44.1221ZM22.924 12.8192H24.8943V34.704H29.3041V9.39461H22.9005C16.45 9.39461 13.0489 12.7254 13.0489 17.6043C13.0489 21.4981 14.9019 23.7968 18.2093 26.1659L12.4625 34.7275H17.2476L23.6511 25.1573L21.4228 23.6561C18.7253 21.8265 17.4118 20.3956 17.4118 17.3463C17.4118 14.6488 19.3117 12.8192 22.924 12.8192Z" fill="#1E1E1E"/>
</svg>
