<svg width="24" height="25" viewBox="0 0 24 25" fill="none" xmlns="http://www.w3.org/2000/svg">
<g clip-path="url(#clip0_1_91)">
<path fill-rule="evenodd" clip-rule="evenodd" d="M5.70474 23.2216L12.0003 19.3927L18.2959 23.2216C18.5149 23.3548 18.7775 23.3965 19.027 23.3374C19.5509 23.2135 19.8752 22.6882 19.7513 22.1642L18.0551 14.9935L23.6422 10.1893C23.8366 10.0222 23.9573 9.78521 23.9783 9.52975C24.0223 8.99308 23.623 8.52232 23.0863 8.47826L15.7424 7.87555L12.8998 1.07739C12.8009 0.840912 12.6129 0.65288 12.3764 0.553997C11.8796 0.346266 11.3085 0.580599 11.1008 1.07739L8.25817 7.87555L0.914331 8.47826C0.658866 8.49923 0.421932 8.61996 0.254811 8.81431C-0.0962711 9.22261 -0.0498962 9.83819 0.358392 10.1893L5.94541 14.9935L4.24927 22.1642C4.19026 22.4135 4.23186 22.6762 4.36506 22.8952C4.64487 23.3554 5.24467 23.5015 5.70474 23.2216ZM12.7798 16.8821C12.3009 16.5908 11.6997 16.5908 11.2208 16.8821L7.59783 19.0856L8.57394 14.959C8.70295 14.4136 8.51715 13.8418 8.09221 13.4764L4.87696 10.7116L9.10323 10.3648C9.6618 10.3189 10.1482 9.96553 10.3644 9.44846L12.0003 5.53623L13.6362 9.44846C13.8524 9.96553 14.3388 10.3189 14.8974 10.3648L19.1236 10.7116L15.9083 13.4764C15.4835 13.8418 15.2977 14.4136 15.4267 14.959L16.4027 19.0856L12.7798 16.8821Z" fill="black" fill-opacity="0.85"/>
</g>
<defs>
<clipPath id="clip0_1_91">
<rect width="24" height="24" fill="white" transform="translate(0 0.12207)"/>
</clipPath>
</defs>
</svg>
